<?xml version="1.0" encoding="UTF-8"?>
<svg id="Layer_1" data-name="Layer 1" xmlns="http://www.w3.org/2000/svg" viewBox="0 0 959.64 784.13">
  <defs>
    <style>
      .cls-1 {
        fill: #e0a17c;
      }

      .cls-1, .cls-2 {
        stroke-width: 0px;
      }

      .cls-2 {
        fill: #ab6540;
      }
    </style>
  </defs>
  <g>
    <g>
      <path class="cls-1" d="M152.47,388.85c-2.65,10.04-7.86,19.13-15.61,27.27,2.36,11.76,1.6,23.81-2.29,36.14-2.17,6.66-5.49,11.61-9.97,14.86-4.48,3.25-8.62,4.27-12.42,3.07-4.65-1.47-7.4-5.23-8.24-11.29-.63-5,.07-9.93,2.09-14.8,3.08-7.93,9.67-16.93,19.79-27.01-1.46-2.29-3.23-4.48-5.3-6.55-5.02-4.83-15.91-11.66-32.68-20.49-17.51-9.06-29.46-16.43-35.83-22.12-8.9-7.61-15.82-16.36-20.78-26.26-1.43-2.85-1.23-4.62.61-5.32,1.23-.46,2.47.36,3.73,2.45,3.48,5.05,9.27,9.85,17.38,14.39,1.61.93,10.77,4.46,27.48,10.58,15.63,5.64,26.83,10.73,33.58,15.26,9.78,6.62,16.81,16.25,21.09,28.9,6.06-6.98,10.17-14.02,12.33-21.1,4.24-13.91.28-27.17-11.87-39.76-9.87-10.32-22.03-17.76-36.5-22.33-2.47-.78-5.03-1.51-7.66-2.21-22.11-5.28-40.65-4.01-55.64,3.83-13.2,6.85-22.1,17.81-26.69,32.88-.98,3.22-1.71,6.52-2.2,9.9-1.91,13.38.13,25.53,6.12,36.46,5.32,9.59,12.05,15.67,20.19,18.24,1.73.55,3.39.86,4.98.94,6.92.35,12.6-1.88,17.04-6.69,2.99-3.15,5.01-6.89,6.05-11.22.98-3.64,1.11-7.63.4-11.95-.27-1.78.29-2.94,1.67-3.5.94-.41,1.99-.08,3.14.99,2.86,2.6,5.1,6.34,6.71,11.23,2.43,7.12,2.13,14.3-.89,21.54-2.82,6.6-7.46,11.63-13.92,15.09-7.24,3.79-14.74,4.46-22.51,2-5.92-1.87-11.61-5.57-17.09-11.12-8.75-8.98-14.49-20.99-17.2-36.04-2.71-15.05-1.89-29.73,2.47-44.03,2.28-7.47,5.5-14.29,9.68-20.46,8.47-12.72,19.95-20.67,34.44-23.87,12.94-2.98,27.11-2.03,42.52,2.83,18.86,5.96,34.42,15.46,46.66,28.5,14.82,15.69,19.86,32.61,15.15,50.75ZM129.29,423.68c-10.07,9.53-16.18,17.84-18.34,24.93-2.35,7.73-1.41,12.62,2.83,14.66,5.56,2.6,10.37-1.88,14.44-13.45,3.39-9.8,3.75-18.52,1.07-26.14Z"/>
      <g>
        <path class="cls-1" d="M195.16,266.05c1.19,7.2-.15,12.84-4.03,16.92-4.56,4.82-10.98,4.86-19.27.14,4.72,11.34,4.09,21.21-1.88,29.6-3.45,4.86-8.2,7.37-14.25,7.53-5.66.3-11.07-1.45-16.22-5.25-4.42-3.26-8.25-7.78-11.51-13.57-4.25-7.76-6.25-15.55-5.98-23.37.29-6.72,2.09-12.41,5.4-17.06,3.81-5.36,9.27-7.58,16.38-6.66-2.86-4.57-4.04-8.14-3.54-10.7.25-1.05.83-2.09,1.72-3.12,2.3-2.78,4.03-3.5,5.2-2.18,3.61,4.51,9.63,11.57,18.06,21.17,6.52,6.81,11.64,11.59,15.37,14.33,4.15,3.06,6.95,3.58,8.39,1.56,1.87-2.63,1.8-7.54-.21-14.72-1.07-3.72-2.66-7.51-4.77-11.38-.45-.95-.43-1.78.07-2.49.72-1.01,1.66-1.09,2.83-.23,1.27.94,2.96,4.03,5.05,9.27,1.78,4.55,2.84,7.95,3.18,10.2ZM149.91,262.53c-5.99-3.95-11.05-4.37-15.19-1.25-.86.76-1.58,1.54-2.15,2.35-4.6,6.48-1.17,16.72,10.31,30.72,4.59,5.7,8.62,9.82,12.08,12.37,4.52,3.33,8.09,4.04,10.73,2.13.71-.55,1.36-1.23,1.93-2.04,4.03-5.66,2.79-14.83-3.73-27.49-.69-1.28-1.43-2.6-2.23-3.95-3.74-3.52-7.65-7.8-11.76-12.83Z"/>
        <path class="cls-1" d="M211.52,213.35c3.58,5.88,5.81,12.07,6.69,18.57.9,7.6-.34,13.78-3.72,18.54-.72,1.01-1.58,2-2.58,2.95-6.7,6.01-18.54,2.76-35.52-9.76-8.7-6.41-17.71-14.67-27.03-24.78-33.38-36.32-45.69-59.03-36.94-68.16,3.98-4,10.43-2.72,19.34,3.85,7.96,5.87,15.97,13.93,24.04,24.2,3.74,4.76,8.14,12.09,13.23,22,5.61,10.77,9.4,19.65,11.38,26.65,3.46,2.86,6.74,5.43,9.81,7.7,10.72,7.9,17.19,10.97,19.41,9.22.72-.55,1.33-1.18,1.83-1.89,2.16-3.04,2.52-7.86,1.07-14.47-.1-.54-1.32-3.82-3.66-9.87-1.88-4.63-2.4-7.09-1.54-7.38,1.57-.38,2.97.49,4.2,2.63ZM116.61,154.04c-2.4,1.78.95,8.33,10.04,19.66,8.04,10.09,18.02,20.84,29.96,32.25,4.94,4.88,10.1,9.68,15.47,14.41-3.47-11.96-10.3-24.86-20.52-38.71-7.5-10.15-14.96-17.97-22.39-23.44-6.15-4.54-10.35-5.93-12.56-4.17Z"/>
        <path class="cls-1" d="M247.06,165.77c1.75,3.45,2.97,6.51,3.66,9.18,1.31,4.98,1.58,10.18.79,15.61-1.06,7.4-3.63,13.98-7.73,19.74-4.39,6.17-9.7,10.35-15.95,12.53-8.45,3.02-16.24,1.91-23.35-3.33-11.46-8.45-16.4-20.95-14.81-37.51.73-6.71,3-12.74,6.81-18.11,3.96-5.56,8.44-8.12,13.46-7.66,2.24.26,4.31,1.1,6.22,2.51,3.61,2.66,6.19,6.99,7.75,12.99,1.55,6,1.78,12.84.69,20.52-.98,6.83-2.52,12.87-4.62,18.1,5.46,2.79,10.31,2.9,14.57.33,2.79-1.65,4.97-3.58,6.56-5.81,2.44-3.44,4.18-8.95,5.2-16.52,1.2-8.52-.18-16.01-4.15-22.48-.84-1.54-.37-2.43,1.41-2.66,1.43-.18,2.59.68,3.5,2.58ZM198.72,170.62c-2.16,3.04-2.67,7.05-1.53,12.05,1.24,5.54,4.4,11.1,9.48,16.7,2.82,3.32,5.66,6.03,8.53,8.14,3.36-6.31,4.67-12.36,3.93-18.15-.43-3.71-1.69-7.45-3.78-11.23-2.09-3.77-4.41-6.6-6.95-8.48-3.92-2.89-7.15-2.57-9.67.97Z"/>
      </g>
    </g>
    <g>
      <path class="cls-1" d="M880.52,308.1c-.05,1.63-1.37,2.64-3.97,3.04-3.13.53-7.07.12-11.83-1.23-6.69-2.07-12.98-5.65-18.86-10.74-2.93,2.45-5.21,4.42-6.86,5.9-2.2,1.98-3.98,2.17-5.35.59l-8.36-9.63c-1.89-2.17-1.69-4.11.58-5.81,1.37-1.06,3.87-2.87,7.51-5.44-3.22-5.02-6.07-10.37-8.56-16.05-3.07-6.92-4.84-14.21-5.3-21.88-16.34,2.21-29.4.41-39.17-5.4-7.07-4.2-12.92-8.96-17.55-14.29-5.4-6.22-8.8-12.67-10.18-19.34-1.23-6.11-.7-11.6,1.59-16.48,1.14-2.26,2.53-4.12,4.18-5.61,3.11-2.8,6.66-4.06,10.66-3.78,3.99.28,6.97,1.55,8.95,3.83,2.23,2.57,3.19,5.04,2.9,7.42-.3,2.38-1.36,4.21-3.18,5.5-1.18.71-3.2,1.29-6.06,1.76-2.86.46-5.02,1.35-6.49,2.67-4.39,3.95-4.91,8.9-1.54,14.85,1.1,1.83,2.33,3.53,3.7,5.11,9,10.37,21.33,14.06,36.99,11.05,4.47-.86,9.9-2.4,16.28-4.62,1.76-7.74,4.88-13.63,9.37-17.66,3.39-3.05,7.31-4.73,11.76-5.04,5.78-.28,10.73,2.04,14.85,6.96,12.02-6.24,20.96-11.82,26.81-16.73,15.08-12.86,17.9-24.73,8.47-35.59-4.46-5.14-10.52-8.74-18.19-10.81-8.64-2.25-16.84-1.65-24.59,1.81-4.15,1.8-7.5,3.85-10.07,6.15-3.3,2.97-5.2,6.31-5.72,10.03-.52,3.72.64,7.21,3.47,10.47,1.89,2.17,4.23,3.94,7.03,5.28,2.8,1.35,5.12,1.81,6.96,1.39,1.84-.42,3.18.04,4.02,1.39.75,1.43.08,2.92-2.01,4.45-4.19,3.24-9.27,4.73-15.21,4.45-6.57-.25-11.91-2.74-16.03-7.48-4.8-5.53-6.68-12.11-5.64-19.73,1.02-7.08,4.24-13.05,9.64-17.91,6.95-6.26,16.53-9.69,28.73-10.29,8.81-.36,17.29,1.33,25.44,5.08,7.44,3.5,13.74,8.22,18.88,14.15,3.26,3.75,5.71,7.61,7.37,11.58,5.84,14.62,1.54,28.44-12.93,41.45-4.94,4.45-11.09,8.92-18.43,13.42-2.9,1.73-6.2,3.56-9.91,5.49.97,5.63,1.08,10.64.32,15.02-1.6,8.3-3.89,14.58-6.87,18.85-.65.94-.89,1.51-.72,1.7.26.12.85-.15,1.76-.79,14.93-10.97,31.17-19.6,48.7-25.88,16.36-5.75,31.23-7.78,44.6-6.09,2.83.44,4.3,1.67,4.42,3.68.11,2.01-1.52,3.04-4.9,3.09-15.49.57-33.75,7.32-54.79,20.27-15.24,9.31-31.11,20.78-47.64,34.42,3.46,2.86,6.86,5.08,10.19,6.66,4.12,1.75,7.78,2.67,10.98,2.79,2.31-.15,4.59-.3,6.81-.46,2.23-.16,3.22.84,2.97,3ZM851.17,216.56c-5.98-5-11.8-4.95-17.48.15-2.75,2.47-4.78,5.95-6.11,10.43,7.79-3.04,15.66-6.57,23.58-10.58ZM844.61,275.76c8.17-8.24,13.12-18.23,14.82-29.97.66-3.93.78-7.74.37-11.41-11.46,5.39-22.74,9.21-33.84,11.45,1,13.17,4.84,25.11,11.53,35.81,3.37-2.69,5.75-4.64,7.12-5.88Z"/>
      <path class="cls-1" d="M863.88,376.37c-6.24-2.63-9.98-6.53-11.22-11.71-1.47-6.1,1.75-11.32,9.65-15.68-11.27-1.84-18.69-7.28-22.24-16.31-2.06-5.22-1.62-10.33,1.31-15.31,2.63-4.74,6.74-8.25,12.33-10.52,4.79-1.95,10.27-2.81,16.46-2.55,8.24.43,15.35,2.7,21.34,6.82,5.12,3.59,8.67,7.89,10.64,12.9,2.27,5.76,1.24,11.3-3.08,16.6,5.03-.03,8.42.79,10.18,2.48.69.73,1.22,1.71,1.57,2.96,1.01,3.25.7,5.02-.93,5.3-5.36.67-13.94,2.02-25.73,4.06-8.64,1.88-14.98,3.65-19.02,5.3-4.5,1.84-6.32,3.84-5.47,6.02,1.11,2.83,4.99,5.22,11.64,7.18,3.46.99,7.24,1.59,11.33,1.82.97.11,1.61.54,1.91,1.3.43,1.09,0,1.89-1.26,2.41-1.38.56-4.66.38-9.82-.54-4.47-.83-7.67-1.67-9.61-2.52ZM889.55,341.46c6.13-2.88,9.02-6.78,8.67-11.68-.16-1.07-.41-2.05-.75-2.92-2.74-6.96-12.51-9.29-29.29-6.99-6.79.87-12.06,2.08-15.81,3.61-4.89,2-7.26,4.54-7.1,7.63.07.85.28,1.71.62,2.59,2.4,6.09,10.21,9.66,23.43,10.71,1.35.08,2.76.14,4.23.17,4.65-1.27,9.99-2.31,16.01-3.12Z"/>
      <path class="cls-1" d="M884.73,420c-6.08-1.28-11.79-4.1-17.12-8.47-6.11-5.07-9.36-10.95-9.77-17.64-.2-4.05,1.47-7.7,5-10.96,3.53-3.26,8.27-5.43,14.21-6.53,3.28-.6,6.77-.83,10.45-.66,15.8.75,25.24,2.11,28.33,4.08,2.51,1.65,3.87,3.79,4.08,6.43.5,4.27-.77,6.69-3.8,7.25-1.9.35-5.63.26-11.21-.26-7.55-.58-12.23-.85-14.05-.79-10.48-.18-17.36.03-20.64.63-4.3.79-6.19,2.62-5.68,5.48.7,3.95,3.85,7.74,9.44,11.36,4.43,2.99,8.62,4.96,12.57,5.93,1.76.38,2.38,1.32,1.87,2.83-.41,1.34-1.63,1.78-3.67,1.31ZM940.59,387.31c-.44-2.46.08-4.66,1.55-6.63,1.47-1.96,3.4-3.16,5.8-3.61,2.52-.46,4.95.04,7.29,1.51,2.34,1.47,3.76,3.57,4.24,6.3.46,2.59-.05,4.83-1.54,6.73-1.49,1.89-3.36,3.05-5.63,3.47-2.65.49-5.14,0-7.48-1.47-2.34-1.47-3.76-3.57-4.24-6.3Z"/>
      <path class="cls-1" d="M917.55,478.19c-.52.49-1.47.37-2.85-.36-3.98-1.98-6.97-4.81-8.95-8.49-3.03-5.78-3.45-11.11-1.25-16.01,2.2-4.9,6.48-7.77,12.84-8.6,1.44-.18,2.13-.45,2.05-.82-.05-.25-.57-.65-1.54-1.21-2.62-1.37-8.39-3.61-17.28-6.72-5.49-1.53-14.03-2.86-25.6-3.99-1.52-.19-2.75-2.3-3.7-6.34-.57-2.19-.78-3.97-.64-5.35s.69-2.17,1.64-2.37c8.01-1.19,16.91-1.99,26.69-2.4,5.49-.27,11.42-.24,17.77.07,5.73.32,8.94.6,9.6.84,1.53.83,2.52,2.99,3,6.49.59,4.11-.28,6.15-2.62,6.14-3.06.13-7.59.27-13.6.39-3.08.01-6.78.29-11.11.82-.33.2-.52.49-.56.89.43.29,1.04.55,1.82.77,5.92,1.82,11.89,4.02,17.9,6.59,6.01,2.57,9.89,4.67,11.64,6.29,1.75,1.62,2.99,4.21,3.72,7.77.66,3.2-.49,5.11-3.45,5.74-1.54.33-4.48.12-8.82-.63-6.29-1.23-10.39-1.64-12.27-1.24-4.61.98-5.45,4.69-2.52,11.13,1.36,3.05,3.92,5.58,7.66,7.61,1.41.86,1.55,1.85.43,2.99Z"/>
    </g>
    <g>
      <path class="cls-1" d="M411.35,110.85c.19,7.68-.74,14.08-2.8,19.19-3.1,7.61-7.16,12.41-12.17,14.41-5.23,2.08-10.52.59-15.86-4.49-4.23-4.13-7.49-9.35-9.78-15.64-.35-1.24-.75-1.78-1.18-1.61-.48.06-.76.79-.85,2.21-2.24,22.92-9.58,36.86-22,41.81-9.8,3.91-19.49,2.08-29.05-5.47-8.29-6.53-14.63-15.51-19.02-26.92-5.03-13.09-6.95-27.71-5.74-43.85,1.41-19.54,7.09-38.08,17.06-55.63,9.77-17.05,20.65-27.97,32.64-32.75,3.16-1.26,6.29-1.95,9.38-2.07,11.47-.55,19.33,4.7,23.58,15.75,1.62,4.21,2.36,8.27,2.24,12.2-.09,3.36-.93,4.94-2.51,4.74-2-.31-2.87-1.9-2.59-4.79.21-3.69-.37-7.33-1.75-10.94-2.63-6.85-7.66-10.45-15.09-10.82-3.61-.23-7.2.38-10.8,1.81-9.81,3.91-17.82,12.63-24.04,26.18-6.58,14.25-9.67,30.56-9.27,48.93.46,23.75,3.44,42.77,8.92,57.05,2.72,7.08,6.05,12.47,9.98,16.15,5.03,4.92,10.43,6.22,16.21,3.92,6.75-2.69,11.69-10.12,14.8-22.29,2.78-11.07,3.37-21.95,1.77-32.66l-10.59-70.68c-.15-1.04-.19-1.79-.11-2.24,0-.97.36-1.66,1.08-2.09l8.55-5.69c1-.67,1.81-1,2.45-.98.9.06,1.44.81,1.62,2.26,1.31,7.66,4.47,24.54,9.49,50.67,5.48,26.36,9.79,43.62,12.93,51.79,2.17,5.65,4.13,8.47,5.89,8.46.75-.02,1.5-.18,2.26-.49,3.16-1.26,5.74-4.99,7.76-11.19,1.3-4.12,2.03-8.77,2.17-13.96.1-1.7.75-2.79,1.95-3.27.65-.26,1.18-.19,1.58.2.49.63.79,1.56.88,2.77Z"/>
      <path class="cls-1" d="M482.84,112.37c-4.31,6.19-8.75,9.67-13.32,10.45-7.34,1.24-12.42-2.95-15.23-12.6-2.67,5.64-6.17,10.3-10.52,13.97-4.35,3.66-8.71,5.74-13.08,6.21-4.86.55-9.42-.87-13.69-4.27-4.69-3.73-7.62-9.16-8.78-16.29-.47-2.85-.6-5.96-.41-9.32.68-10.23,4.13-19.07,10.34-26.52,5.52-6.39,11.59-10.15,18.22-11.28,5.78-.98,11.04.86,15.76,5.53.02-14.25.27-33.13.75-56.65.05-1.21.16-2.03.34-2.46s.74-.96,1.68-1.59c.94-.63,2.59-1.27,4.95-1.94,3.07-.79,5.17-.81,6.28-.06.68.42,1.05,1.89,1.09,4.41-.3,9.51-.65,27.41-1.05,53.71-.24,25.74.09,41.4,1,46.97.76,4.66,2.23,6.81,4.39,6.45,2.29-.39,5.1-3.19,8.46-8.42,2.46-3.88,4.23-8.17,5.32-12.88.21-.97.74-1.52,1.58-1.67,1.08-.18,1.73.37,1.94,1.67.25,1.56-.41,4.3-1.99,8.23-1.58,3.93-2.92,6.72-4.01,8.37ZM452.4,79.37c-2.91-8.7-7.55-12.5-13.93-11.42-8.06,1.37-12.79,11.42-14.18,30.16-.38,5.26-.24,9.9.42,13.91,1.31,8.04,4.03,12.17,8.15,12.4,5.61.25,11.02-4.46,16.24-14.14,1.72-3.09,3-6.97,3.85-11.64-.06-4.12-.24-10.54-.55-19.28Z"/>
      <path class="cls-1" d="M551.05,82.2c.37.64.06,1.59-.93,2.86-2.72,3.69-6.05,6.18-10,7.45-6.17,1.91-11.39,1.21-15.64-2.1-4.26-3.31-6.14-8.33-5.65-15.08.12-1.53,0-2.29-.37-2.29-.25,0-.74.45-1.48,1.34-1.85,2.42-5.18,7.89-10,16.42-2.59,5.35-5.62,13.88-9.07,25.59-.5,1.53-2.78,2.35-6.85,2.48-2.22.13-3.98-.03-5.28-.48s-1.94-1.18-1.94-2.2c.5-8.53,1.54-17.88,3.15-28.07.86-5.73,2.1-11.84,3.7-18.33,1.48-5.85,2.41-9.1,2.78-9.74,1.11-1.4,3.39-1.97,6.85-1.72,4.07.26,5.86,1.59,5.37,4.01-.5,3.18-1.3,7.89-2.41,14.13-.62,3.18-1.11,7.07-1.48,11.65.12.38.37.64.74.76.37-.38.74-.95,1.11-1.72,2.96-5.73,6.29-11.42,10-17.09,3.7-5.66,6.51-9.23,8.42-10.69,1.91-1.46,4.66-2.2,8.24-2.2,3.21,0,4.81,1.59,4.81,4.77,0,1.66-.8,4.65-2.41,8.97-2.47,6.24-3.7,10.38-3.7,12.41,0,4.96,3.39,6.62,10.18,4.96,3.21-.76,6.17-2.86,8.89-6.3,1.11-1.27,2.1-1.21,2.96.19Z"/>
      <path class="cls-1" d="M583.62,102c-2.07,5.21-5.4,9.83-10.02,13.88-5.34,4.63-10.92,6.59-16.75,5.9-3.52-.47-6.4-2.52-8.65-6.18-2.25-3.65-3.37-8.21-3.37-13.66,0-3.01.36-6.15,1.09-9.4,3.16-13.92,5.83-22.1,8.01-24.54,1.82-1.97,3.88-2.84,6.19-2.61,3.76.23,5.64,1.74,5.64,4.53,0,1.74-.67,5.05-2,9.92-1.7,6.62-2.67,10.74-2.91,12.36-1.82,9.28-2.73,15.44-2.73,18.45,0,3.95,1.27,5.92,3.82,5.92,3.52,0,7.28-2.2,11.29-6.59,3.28-3.47,5.64-6.88,7.1-10.24.6-1.5,1.52-1.91,2.73-1.21,1.09.58,1.27,1.73.55,3.47ZM564.32,47.17c-2.19,0-4.01-.81-5.46-2.43-1.46-1.62-2.19-3.53-2.19-5.73,0-2.31.82-4.39,2.46-6.25,1.64-1.85,3.67-2.78,6.1-2.78s4.16.81,5.55,2.43c1.39,1.62,2.09,3.47,2.09,5.55,0,2.43-.82,4.57-2.46,6.42-1.64,1.85-3.67,2.78-6.1,2.78Z"/>
      <path class="cls-1" d="M636.59,129.49c-5.17,4.35-10.14,5.78-14.92,4.29-5.63-1.75-8.27-7.33-7.92-16.73-6.99,9.34-14.99,13.33-24.01,12-5.21-.77-9.11-3.76-11.69-8.95-2.53-4.8-3.35-10.32-2.46-16.56.77-5.35,2.76-10.78,5.99-16.29,4.37-7.28,9.68-12.61,15.93-15.98,5.4-2.84,10.59-3.89,15.59-3.15,5.75.85,9.71,4.59,11.87,11.21,2.43-4.6,4.75-7.27,6.97-8.02.92-.26,1.97-.24,3.15.06,3.11.73,4.39,1.9,3.82,3.53-2.08,5.22-5.18,13.73-9.3,25.5-2.7,8.82-4.38,15.49-5.02,20-.72,5.03,0,7.71,2.18,8.03,2.82.42,6.65-1.9,11.48-6.97,2.49-2.65,4.82-5.78,7-9.4.56-.83,1.22-1.2,1.99-1.08,1.08.16,1.53.95,1.33,2.36-.22,1.54-1.97,4.43-5.23,8.68-2.85,3.65-5.09,6.14-6.73,7.47ZM621.01,88.43c.67-7.04-1.05-11.65-5.18-13.82-.94-.4-1.85-.66-2.72-.79-6.95-1.03-13.6,6.69-19.94,23.14-2.61,6.63-4.22,12.04-4.82,16.23-.78,5.47.11,8.91,2.68,10.33.72.37,1.52.62,2.39.74,6.08.9,12.77-4.4,20.07-15.92.72-1.19,1.46-2.45,2.2-3.76,1.25-4.88,3.02-10.26,5.31-16.16Z"/>
      <path class="cls-1" d="M710,145.16c-3.7,4.2-8.47,7.62-14.3,10.24-6.4,2.8-11.49,3.41-15.25,1.84-3.55-1.48-5.87-4.22-6.96-8.23-1.09-4.01-.85-7.95.7-11.81.47-1.17,1.02-2.24,1.66-3.2,4.88-7.13,10.25-15.01,16.11-23.64,2.71-3.93,3.32-6.54,1.84-7.85-1.21-1.05-4.04-.73-8.5.97-4.92,1.92-9.91,4.96-14.98,9.14-9.88,8.32-18.02,16.83-24.4,25.52-1.19,1.69-3.61,1.78-7.26.25-2.37-.99-3.74-1.63-4.13-1.93-1.31-.82-1.59-1.96-.87-3.44,2.49-5.25,7.07-14.28,13.73-27.1,7.09-12.63,12.11-19.63,15.05-21.01,1.35-.53,3.5-.11,6.47,1.26,3.46,1.72,4.44,3.63,2.96,5.75-4.05,5.7-9.56,13.93-16.53,24.7-.89,1.27-.98,2.12-.27,2.55.6.39,1.38.16,2.34-.67,2.97-3,8.67-7.8,17.1-14.41,9.9-6.81,17.44-9.14,22.6-6.99,3.23,1.35,5.31,3.89,6.26,7.64.94,3.75.66,7.49-.85,11.24-.19.47-5.31,9.14-15.37,26.01-3.42,5.69-4.58,9.03-3.47,10.04,2.3,1.78,6.51,1,12.62-2.33,4.83-2.63,8.63-5.36,11.39-8.17,1.35-1.49,2.48-1.49,3.4-.02.62.95.26,2.16-1.09,3.65Z"/>
    </g>
  </g>
  <g>
    <path class="cls-2" d="M595.89,764.62c-4.86,2.21-9.68,4.53-14.6,6.6-9.61,4.05-19.23,8.1-28.94,11.89-6.15,2.4-10.97.6-13.6-5.5-3.12-7.24-5.64-14.76-8.27-22.21-3.41-9.67-6.67-19.38-9.98-29.08-4.45-13.04-8.66-26.18-13.37-39.12-6.53-17.97-13.27-35.86-20.21-53.67-8.73-22.39-17.64-44.71-26.71-66.96-8.19-20.08-16.66-40.04-25.11-60.01-5.74-13.57-11.13-27.32-17.6-40.53-8.6-17.54-18-34.68-27.28-51.86-3.23-5.98-8.12-9.37-15.37-8.14-10.56,1.79-20.55-1.02-30.09-5.11-7.51-3.22-13.87-8.4-19.24-14.8-11.76-14.04-18.12-30.25-17.53-48.66.79-24.47,17.96-42.97,42.32-42.56,8.66.15,17,2.57,24.59,7.24,14.65,9.03,24.77,21.92,30.47,38.14,5.5,15.65,4.5,31.13-3.21,46.06-1.78,3.44-3.23,7.23-3.96,11.03-1.1,5.72,2.27,10.37,5.06,14.84,8.91,14.3,18.05,28.46,27.16,42.62,5.37,8.34,10.64,16.75,16.36,24.84,5.35,7.56,11.99,13.77,20.51,17.66,5.13,2.34,9.85,1.42,14.38-1.53,6.59-4.3,10.91-10.72,14.89-17.29,14.06-23.16,27.93-46.44,41.86-69.68,3.65-6.09,3.66-12.21-.21-18.16-6.96-10.68-10.86-22.19-9.8-35.18,1.72-21.03,11.87-36.37,30.49-45.4,6.82-3.31,14.56-4.52,22.2-4.05,6.88.42,10.86-1.88,13.62-8.75,4.86-12.14,12.2-22.73,22.97-30.49,7.27-5.24,15.36-8.42,24.04-10.01,2.43-.44,5.07-.33,7.51.12,2.73.5,3.29,2.74.96,4.21-3.43,2.17-7.16,3.98-10.95,5.41-9.63,3.64-17.71,9.54-24.28,17.41-6.7,8.02-9.14,17.64-7.69,27.97,1.16,8.25,2.88,16.44,4.84,24.54,5.93,24.52-4.2,50.27-26.27,62.69-5.98,3.37-12.64,5.16-19.38,5.09-8.35-.08-13.61,4.1-16.99,11.08-11.16,23.07-22.12,46.24-33.11,69.4-7.69,16.2-15.34,32.42-22.91,48.69-1.39,2.99-3.07,6.16-3.24,9.32-.23,4.26.61,8.66,1.49,12.89,1.67,8.06,3.66,16.05,5.57,24.06,2.65,11.13,5.12,22.31,8.1,33.35,2.05,7.56,8.95,12.83,16.76,12.63,5.84-.15,11.66-1.39,17.46-2.36,3.98-.66,7.9-1.69,11.85-2.55.12.35.24.69.36,1.04-1.82.83-3.64,1.65-5.46,2.48-9.59,4.39-19.19,8.76-28.76,13.2-2.21,1.02-4.1,2.47-3.29,5.44.68,2.49,2.93,3.68,6.21,2.74,5.36-1.54,10.65-3.31,15.9-5.2,6.31-2.27,12.53-4.75,18.8-7.15.1.24.21.48.31.73-3.27,1.43-6.55,2.83-9.8,4.28-8.18,3.65-16.35,7.31-24.51,11.02-1.04.47-2.44,1.04-2.81,1.93-.71,1.73-1.21,3.79-.92,5.56.1.62,2.96,1.43,4.27,1.07,5.37-1.47,10.65-3.27,15.92-5.11,6.66-2.31,13.26-4.77,20.15-6.59-4.57,2.08-9.16,4.1-13.7,6.24-7.14,3.37-14.25,6.8-21.34,10.26-1.77.86-3.59,2.1-2.52,4.43,1.08,2.36,3.28,3.42,5.79,2.72,5.06-1.41,10.08-3.01,15.08-4.61,6.8-2.18,13.57-4.43,20.58-6.07-4.6,1.87-9.19,3.75-13.79,5.61-6.54,2.64-13.12,5.21-19.62,7.96-1.29.54-2.68,1.55-3.35,2.74-1.78,3.14.16,6.51,3.65,5.91,4.72-.82,9.34-2.37,13.9-3.91,5.27-1.78,10.43-3.88,15.92-5.14-4.75,2.15-9.53,4.26-14.25,6.48-4.49,2.11-8.96,4.26-13.37,6.53-2.11,1.09-3.61,2.86-2.84,5.47.67,2.26,2.3,3.29,4.68,2.47,7.86-2.68,15.71-5.38,23.56-8.07,3.05-1.04,6.11-2.06,9.45-2.42-4.03,1.79-8.09,3.52-12.09,5.38-6.4,2.97-12.78,5.97-19.13,9.05-2.21,1.07-3.48,2.78-2.44,5.48,1.09,2.85,3.38,2.73,5.55,2.05,7.02-2.19,14.01-4.51,20.97-6.87,3.68-1.25,7.3-2.68,11.21-3.47-4.44,2.06-8.87,4.16-13.33,6.16-5.95,2.67-12.03,5.07-17.88,7.97-3.84,1.9-4.32,5.27-1.28,7.6,1.12.86,3.27,1.17,4.62.71,7.57-2.54,15.04-5.41,22.56-8.11,2.34-.84,4.73-1.52,7.32-1.72-3.26,1.44-6.52,2.9-9.79,4.33-5.89,2.58-11.79,5.12-17.66,7.74-2.44,1.09-4.87,2.25-4.56,5.73.18,2.05,1.13,3.24,3.15,3.26,1.57.02,3.23.06,4.7-.41,5.5-1.76,10.94-3.68,16.38-5.62,3.14-1.12,6.22-2.39,9.33-3.59l.41.9c-1.86.87-3.72,1.74-5.58,2.61-7.06,3.29-14.2,6.42-21.12,9.98-1.44.74-3.02,3.11-2.91,4.6.2,2.63,2.93,2.92,5.01,2.53,3.8-.72,7.6-1.65,11.28-2.87,7.39-2.44,14.69-5.13,22.15-7.59-4.15,1.99-8.27,4.03-12.45,5.94-6.13,2.81-12.33,5.47-18.44,8.32-2.17,1.01-3.6,2.72-2.66,5.43.95,2.75,3.09,3.11,5.41,2.39,6.63-2.06,13.22-4.27,19.82-6.42,2.94-.96,5.88-1.92,8.82-2.87.09.26.19.53.28.79-7.56,3.14-15.15,6.21-22.66,9.45-2.31,1-4.65,2.18-6.53,3.82-1.13.98-2.03,3.12-1.79,4.52.15.89,2.73,2.16,3.96,1.92,4.72-.92,9.38-2.22,13.97-3.7,5.76-1.85,11.43-4.02,17.13-6.05l.3.78c-5.99,2.71-12,5.36-17.96,8.14-3.34,1.56-6.62,3.25-9.85,5.04-1.84,1.02-3.96,2.27-3.04,4.94.97,2.82,3.55,2.04,5.45,1.63,4.62-.99,9.18-2.3,13.74-3.58,5.97-1.69,11.91-3.49,17.88-5.2.56-.16,1.21-.02,1.82-.02.05.24.11.49.16.73ZM349.49,303.41c-15.47-.15-26.87,11.15-30.93,22.36-4.24,11.71-2.96,22.96,1.28,34.16,5.9,15.59,15.96,27.24,31.18,34.09,12.69,5.71,25.06,5.34,36.11-3.21,9.33-7.23,13.68-18.05,13.27-29.72-.77-21.89-10.68-39.07-28.8-51.05-6.66-4.4-14.17-6.38-22.11-6.63ZM536.2,359.49c.69,4.21.83,8.61,2.18,12.58,4.55,13.34,15.6,25.49,33.11,22.68,7.6-1.22,14.2-4.69,19.67-10.14,6.64-6.62,10.6-14.69,12.57-24,2.18-10.33,1.28-20.13-3.84-29.23-8.96-15.93-28.57-20.06-42.73-10.7-13.57,8.98-20.46,22.08-20.97,38.81ZM464.82,540.74c6.37-.07,11.19-4.64,11.07-10.61-.1-4.46-3.77-10.25-10.75-10.15-6.8.1-9.57,5.66-9.53,11.06.03,4.45,5.12,9.75,9.22,9.7Z"/>
    <path class="cls-2" d="M399.54,772.36c13.79-70.87,30.74-140.94,48.97-211.52,2.11,4.52,4.01,8.27,5.65,12.14,2.74,6.48,5.04,13.17,8.05,19.52,3.24,6.85,1.95,13.26-.59,19.79-6.79,17.39-13.57,34.78-20.33,52.18-6.6,17-13.13,34.04-19.75,51.03-5.11,13.11-10.34,26.17-15.44,39.27-2.27,5.83-4.37,11.72-6.55,17.58Z"/>
  </g>
</svg>